<svg width="14" height="14" viewBox="0 0 14 14" fill="none" xmlns="http://www.w3.org/2000/svg">
<g id="Icon/Solid/trash">
<path id="Icon" fill-rule="evenodd" clip-rule="evenodd" d="M6.29998 1.40564C6.03484 1.40564 5.79245 1.55544 5.67388 1.79259L5.16735 2.80564H2.79998C2.41338 2.80564 2.09998 3.11904 2.09998 3.50564C2.09998 3.89224 2.41338 4.20564 2.79998 4.20564L2.79998 11.2056C2.79998 11.9788 3.42678 12.6056 4.19998 12.6056H9.79997C10.5732 12.6056 11.2 11.9788 11.2 11.2056V4.20564C11.5866 4.20564 11.9 3.89224 11.9 3.50564C11.9 3.11904 11.5866 2.80564 11.2 2.80564H8.8326L8.32607 1.79259C8.2075 1.55544 7.96512 1.40564 7.69998 1.40564H6.29998ZM4.89998 5.60564C4.89998 5.21904 5.21338 4.90564 5.59998 4.90564C5.98657 4.90564 6.29998 5.21904 6.29998 5.60564V9.80564C6.29998 10.1922 5.98657 10.5056 5.59998 10.5056C5.21338 10.5056 4.89998 10.1922 4.89998 9.80564V5.60564ZM8.39997 4.90564C8.01338 4.90564 7.69998 5.21904 7.69998 5.60564V9.80564C7.69998 10.1922 8.01338 10.5056 8.39997 10.5056C8.78657 10.5056 9.09997 10.1922 9.09997 9.80564V5.60564C9.09997 5.21904 8.78657 4.90564 8.39997 4.90564Z" fill="#6B7280"/>
</g>
</svg>
