<svg width="100" height="100" viewBox="0 0 100 100" fill="none" xmlns="http://www.w3.org/2000/svg">
<g clip-path="url(#clip0_111_3)">
<rect width="1440" height="1024" transform="translate(-680 -382)" fill="#0F0F0F"/>
<path d="M-591.584 33.456C-585.568 33.456 -580.608 34.192 -576.704 35.664C-572.8 37.136 -569.888 39.376 -567.968 42.384C-566.048 45.328 -565.088 49.072 -565.088 53.616C-565.088 56.944 -565.728 59.792 -567.008 62.16C-568.224 64.528 -569.824 66.512 -571.808 68.112C-573.792 69.648 -575.936 70.896 -578.24 71.856L-558.56 102H-572.384L-588.8 74.928H-598.784V102H-611.072V33.456H-591.584ZM-592.352 43.728H-598.784V64.848H-591.968C-588.576 64.848 -585.824 64.432 -583.712 63.6C-581.6 62.768 -580.064 61.552 -579.104 59.952C-578.08 58.352 -577.568 56.368 -577.568 54C-577.568 51.504 -578.112 49.52 -579.2 48.048C-580.288 46.512 -581.92 45.424 -584.096 44.784C-586.208 44.08 -588.96 43.728 -592.352 43.728ZM-503.698 75.888C-503.698 80.24 -504.273 84.08 -505.425 87.408C-506.577 90.736 -508.241 93.584 -510.417 95.952C-512.529 98.256 -515.153 100.016 -518.289 101.232C-521.361 102.384 -524.785 102.96 -528.561 102.96C-532.145 102.96 -535.441 102.384 -538.449 101.232C-541.457 100.016 -544.081 98.256 -546.321 95.952C-548.497 93.584 -550.193 90.736 -551.409 87.408C-552.625 84.08 -553.233 80.24 -553.233 75.888C-553.233 70.128 -552.241 65.264 -550.257 61.296C-548.273 57.264 -545.425 54.224 -541.713 52.176C-537.937 50.064 -533.489 49.008 -528.369 49.008C-523.505 49.008 -519.249 50.064 -515.601 52.176C-511.889 54.224 -508.977 57.264 -506.865 61.296C-504.753 65.264 -503.698 70.128 -503.698 75.888ZM-540.849 75.888C-540.849 79.536 -540.433 82.672 -539.601 85.296C-538.705 87.856 -537.361 89.808 -535.569 91.152C-533.713 92.496 -531.345 93.168 -528.465 93.168C-525.521 93.168 -523.153 92.496 -521.361 91.152C-519.505 89.808 -518.161 87.856 -517.329 85.296C-516.497 82.672 -516.081 79.536 -516.081 75.888C-516.081 72.176 -516.529 69.072 -517.425 66.576C-518.257 64.016 -519.601 62.096 -521.457 60.816C-523.249 59.472 -525.585 58.8 -528.465 58.8C-532.817 58.8 -535.985 60.272 -537.969 63.216C-539.889 66.16 -540.849 70.384 -540.849 75.888ZM-479.097 102H-491.193V29.04H-479.097V102ZM-451.534 102H-463.63V29.04H-451.534V102ZM-390.97 93.264C-389.434 93.264 -387.962 93.136 -386.554 92.88C-385.146 92.56 -383.834 92.208 -382.618 91.824V100.848C-383.898 101.424 -385.562 101.904 -387.61 102.288C-389.658 102.736 -391.802 102.96 -394.042 102.96C-396.986 102.96 -399.674 102.48 -402.106 101.52C-404.474 100.496 -406.394 98.768 -407.866 96.336C-409.274 93.904 -409.978 90.512 -409.978 86.16V59.088H-416.986V53.808L-409.306 49.584L-405.466 38.544H-397.882V49.968H-383.098V59.088H-397.882V86.064C-397.882 88.496 -397.242 90.32 -395.962 91.536C-394.682 92.688 -393.018 93.264 -390.97 93.264ZM-360.034 46.416C-360.034 48.464 -360.13 50.48 -360.322 52.464C-360.45 54.384 -360.578 55.824 -360.706 56.784H-359.938C-358.85 54.992 -357.506 53.552 -355.906 52.464C-354.306 51.312 -352.546 50.448 -350.626 49.872C-348.642 49.296 -346.594 49.008 -344.482 49.008C-340.578 49.008 -337.218 49.68 -334.402 51.024C-331.586 52.368 -329.442 54.448 -327.97 57.264C-326.434 60.016 -325.666 63.632 -325.666 68.112V102H-337.762V70.512C-337.762 66.544 -338.53 63.6 -340.066 61.68C-341.602 59.76 -344.034 58.8 -347.362 58.8C-350.562 58.8 -353.09 59.504 -354.946 60.912C-356.802 62.256 -358.114 64.272 -358.882 66.96C-359.65 69.584 -360.034 72.816 -360.034 76.656V102H-372.13V29.04H-360.034V46.416ZM-289.608 49.008C-284.936 49.008 -280.936 49.968 -277.608 51.888C-274.216 53.744 -271.592 56.432 -269.736 59.952C-267.88 63.408 -266.952 67.632 -266.952 72.624V78.768H-301.32C-301.192 83.504 -299.88 87.184 -297.384 89.808C-294.888 92.368 -291.432 93.648 -287.016 93.648C-283.624 93.648 -280.616 93.328 -277.992 92.688C-275.304 91.984 -272.552 90.992 -269.736 89.712V99.408C-272.296 100.624 -274.952 101.52 -277.704 102.096C-280.456 102.672 -283.752 102.96 -287.592 102.96C-292.648 102.96 -297.16 102 -301.128 100.08C-305.032 98.096 -308.104 95.12 -310.344 91.152C-312.52 87.184 -313.608 82.256 -313.608 76.368C-313.608 70.416 -312.616 65.424 -310.632 61.392C-308.584 57.296 -305.768 54.224 -302.184 52.176C-298.6 50.064 -294.408 49.008 -289.608 49.008ZM-289.608 57.936C-292.808 57.936 -295.432 58.992 -297.48 61.104C-299.464 63.152 -300.648 66.224 -301.032 70.32H-278.664C-278.664 67.888 -279.08 65.744 -279.912 63.888C-280.68 62.032 -281.864 60.592 -283.464 59.568C-285.064 58.48 -287.112 57.936 -289.608 57.936ZM-199.482 42.864C-202.618 42.864 -205.402 43.44 -207.834 44.592C-210.266 45.744 -212.346 47.408 -214.074 49.584C-215.738 51.76 -217.018 54.384 -217.914 57.456C-218.746 60.528 -219.162 63.984 -219.162 67.824C-219.162 73.008 -218.458 77.456 -217.05 81.168C-215.642 84.816 -213.498 87.632 -210.618 89.616C-207.674 91.6 -203.994 92.592 -199.578 92.592C-196.634 92.592 -193.818 92.304 -191.13 91.728C-188.378 91.088 -185.498 90.256 -182.49 89.232V99.696C-185.306 100.848 -188.154 101.68 -191.034 102.192C-193.85 102.704 -197.114 102.96 -200.826 102.96C-207.866 102.96 -213.69 101.52 -218.298 98.64C-222.906 95.696 -226.33 91.6 -228.57 86.352C-230.81 81.04 -231.93 74.832 -231.93 67.728C-231.93 62.544 -231.226 57.808 -229.818 53.52C-228.346 49.232 -226.266 45.52 -223.578 42.384C-220.826 39.248 -217.434 36.816 -213.402 35.088C-209.37 33.36 -204.73 32.496 -199.482 32.496C-196.026 32.496 -192.634 32.912 -189.306 33.744C-185.914 34.512 -182.746 35.6 -179.802 37.008L-184.026 47.088C-186.458 46 -188.986 45.04 -191.61 44.208C-194.17 43.312 -196.794 42.864 -199.482 42.864ZM-148.144 49.008C-141.424 49.008 -136.336 50.48 -132.88 53.424C-129.36 56.304 -127.6 60.848 -127.6 67.056V102H-136.144L-138.544 94.8H-138.928C-140.4 96.656 -141.936 98.224 -143.536 99.504C-145.072 100.72 -146.864 101.584 -148.912 102.096C-150.896 102.672 -153.328 102.96 -156.208 102.96C-159.28 102.96 -162.064 102.384 -164.56 101.232C-166.992 100.08 -168.912 98.32 -170.32 95.952C-171.728 93.52 -172.432 90.48 -172.432 86.832C-172.432 81.456 -170.48 77.424 -166.576 74.736C-162.608 71.984 -156.624 70.48 -148.624 70.224L-139.6 69.936V67.344C-139.6 64.016 -140.4 61.648 -142 60.24C-143.6 58.832 -145.84 58.128 -148.72 58.128C-151.344 58.128 -153.872 58.512 -156.304 59.28C-158.736 60.048 -161.104 60.944 -163.408 61.968L-167.248 53.52C-164.688 52.176 -161.776 51.088 -158.512 50.256C-155.184 49.424 -151.728 49.008 -148.144 49.008ZM-145.936 77.616C-151.248 77.808 -154.928 78.736 -156.976 80.4C-159.024 82 -160.048 84.176 -160.048 86.928C-160.048 89.36 -159.312 91.12 -157.84 92.208C-156.368 93.296 -154.48 93.84 -152.176 93.84C-148.656 93.84 -145.68 92.848 -143.248 90.864C-140.816 88.816 -139.6 85.808 -139.6 81.84V77.424L-145.936 77.616ZM-85.1787 49.008C-84.4107 49.008 -83.5147 49.04 -82.4907 49.104C-81.4667 49.168 -80.6027 49.296 -79.8987 49.488L-80.9547 60.72C-81.5307 60.592 -82.2987 60.496 -83.2587 60.432C-84.1547 60.304 -84.9547 60.24 -85.6587 60.24C-87.5787 60.24 -89.4347 60.56 -91.2267 61.2C-92.9547 61.776 -94.5227 62.672 -95.9307 63.888C-97.2747 65.04 -98.3627 66.544 -99.1947 68.4C-99.9627 70.256 -100.347 72.464 -100.347 75.024V102H-112.443V49.968H-103.131L-101.403 58.992H-100.827C-99.8027 57.136 -98.5227 55.472 -96.9867 54C-95.4507 52.464 -93.6907 51.248 -91.7067 50.352C-89.6587 49.456 -87.4827 49.008 -85.1787 49.008ZM-42.8952 49.008C-36.8152 49.008 -31.9192 51.28 -28.2072 55.824C-24.4952 60.304 -22.6392 66.992 -22.6392 75.888C-22.6392 81.776 -23.5032 86.736 -25.2312 90.768C-26.9592 94.8 -29.3592 97.84 -32.4312 99.888C-35.5032 101.936 -39.0872 102.96 -43.1832 102.96C-45.6792 102.96 -47.8872 102.64 -49.8073 102C-51.7273 101.296 -53.3592 100.432 -54.7032 99.408C-56.0472 98.32 -57.1992 97.168 -58.1592 95.952H-58.9272C-58.6712 97.104 -58.4792 98.416 -58.3512 99.888C-58.2232 101.296 -58.1592 102.64 -58.1592 103.92V125.04H-70.2552V49.968H-60.4632L-58.7352 56.88H-58.1592C-57.1992 55.408 -56.0472 54.096 -54.7032 52.944C-53.2952 51.728 -51.6312 50.768 -49.7112 50.064C-47.7272 49.36 -45.4552 49.008 -42.8952 49.008ZM-46.3512 58.8C-49.1672 58.8 -51.4392 59.376 -53.1672 60.528C-54.8952 61.616 -56.1432 63.312 -56.9112 65.616C-57.6792 67.92 -58.0952 70.8 -58.1592 74.256V75.792C-58.1592 79.504 -57.8072 82.64 -57.1032 85.2C-56.3352 87.76 -55.0872 89.712 -53.3593 91.056C-51.5672 92.4 -49.1672 93.072 -46.1592 93.072C-43.5992 93.072 -41.5192 92.368 -39.9192 90.96C-38.2552 89.552 -37.0392 87.568 -36.2712 85.008C-35.4392 82.384 -35.0232 79.28 -35.0232 75.696C-35.0232 70.32 -35.9512 66.16 -37.8072 63.216C-39.5992 60.272 -42.4472 58.8 -46.3512 58.8ZM10.7665 49.008C15.4385 49.008 19.4385 49.968 22.7665 51.888C26.1585 53.744 28.7825 56.432 30.6385 59.952C32.4945 63.408 33.4225 67.632 33.4225 72.624V78.768H-0.9455C-0.8175 83.504 0.494501 87.184 2.9905 89.808C5.4865 92.368 8.9425 93.648 13.3585 93.648C16.7505 93.648 19.7585 93.328 22.3825 92.688C25.0705 91.984 27.8225 90.992 30.6385 89.712V99.408C28.0785 100.624 25.4225 101.52 22.6705 102.096C19.9185 102.672 16.6225 102.96 12.7825 102.96C7.7265 102.96 3.2145 102 -0.7535 100.08C-4.6575 98.096 -7.7295 95.12 -9.9695 91.152C-12.1455 87.184 -13.2335 82.256 -13.2335 76.368C-13.2335 70.416 -12.2415 65.424 -10.2575 61.392C-8.2095 57.296 -5.3935 54.224 -1.8095 52.176C1.7745 50.064 5.9665 49.008 10.7665 49.008ZM10.7665 57.936C7.5665 57.936 4.9425 58.992 2.8945 61.104C0.910501 63.152 -0.273499 66.224 -0.657499 70.32H21.7105C21.7105 67.888 21.2945 65.744 20.4625 63.888C19.6945 62.032 18.5105 60.592 16.9105 59.568C15.3105 58.48 13.2625 57.936 10.7665 57.936ZM65.7798 93.264C67.3158 93.264 68.7878 93.136 70.1958 92.88C71.6038 92.56 72.9158 92.208 74.1318 91.824V100.848C72.8518 101.424 71.1878 101.904 69.1398 102.288C67.0918 102.736 64.9478 102.96 62.7078 102.96C59.7638 102.96 57.0758 102.48 54.6438 101.52C52.2758 100.496 50.3558 98.768 48.8838 96.336C47.4758 93.904 46.7718 90.512 46.7718 86.16V59.088H39.7638V53.808L47.4438 49.584L51.2838 38.544H58.8678V49.968H73.6518V59.088H58.8678V86.064C58.8678 88.496 59.5078 90.32 60.7878 91.536C62.0678 92.688 63.7318 93.264 65.7798 93.264ZM82.8918 95.856C82.8918 93.168 83.5958 91.28 85.0038 90.192C86.4118 89.04 88.1398 88.464 90.1878 88.464C92.2358 88.464 93.9638 89.008 95.3718 90.096C96.8438 91.184 97.5798 93.104 97.5798 95.856C97.5798 98.48 96.8438 100.368 95.3718 101.52C93.9638 102.672 92.2358 103.248 90.1878 103.248C88.1398 103.248 86.4118 102.672 85.0038 101.52C83.5958 100.368 82.8918 98.48 82.8918 95.856ZM121.704 80.592H112.488L110.088 33.456H124.104L121.704 80.592ZM109.704 95.856C109.704 93.168 110.408 91.28 111.816 90.192C113.224 89.04 114.984 88.464 117.096 88.464C119.08 88.464 120.776 89.008 122.184 90.096C123.656 91.184 124.392 93.104 124.392 95.856C124.392 98.48 123.656 100.368 122.184 101.52C120.776 102.672 119.08 103.248 117.096 103.248C114.984 103.248 113.224 102.672 111.816 101.52C110.408 100.368 109.704 98.48 109.704 95.856Z" fill="white"/>
</g>
<defs>
<clipPath id="clip0_111_3">
<rect width="1440" height="1024" fill="white" transform="translate(-680 -382)"/>
</clipPath>
</defs>
</svg>
